<?xml version="1.0" encoding="UTF-8" standalone="no"?>
<!--Simple Web Audio Player - Copyright Michael Sinz-->
<svg xmlns="http://www.w3.org/2000/svg" viewBox="-220 -150 1320 1320">
  <circle cx="440" cy="510" r="655" fill="#b00"/>
  <path fill="#fff" d="M0 281v-68q2-37 29-63t65-25h93V94q0-39 28-67t66-27h313q39 0 66 27t27 67v31h94q37 0 65 25t29 63v68q0 26-19 44t-44 19v531q0 53-36 89t-89 36H187q-52 0-88-36t-37-89V344q-25 0-43-19T0 281zm62 0h750v-62q0-14-8-23t-23-8H94q-14 0-23 8t-9 23v62zm63 594q0 25 19 44t43 19h500q26 0 44-19t19-44V344H125v531zm62-31V438q0-14 9-23t23-9h62q14 0 23 9t8 23v406q0 13-8 22t-23 9h-62q-14 0-23-9t-9-22zm32 0h62V438h-62v406zm31-719h375V94q0-14-9-23t-22-8H281q-13 0-22 8t-9 23v31zm125 719V438q0-14 9-23t22-9h63q13 0 22 9t9 23v406q0 13-9 22t-22 9h-63q-13 0-22-9t-9-22zm31 0h63V438h-63v406zm156 0V438q0-14 9-23t23-9h62q14 0 23 9t8 23v406q0 13-8 22t-23 9h-62q-14 0-23-9t-9-22zm32 0h62V438h-62v406z"/>
</svg>
