<?xml version="1.0" encoding="UTF-8" standalone="no"?>
<!--Simple Web Audio Player - Copyright Michael Sinz-->
<svg xmlns="http://www.w3.org/2000/svg" viewBox="0 0 26 25">
  <g opacity=".8" transform="translate(0 -1029)">
    <path fill="#3090b0" d="M2 1033.4a2 2 0 0 0-2 2v14c0 1.1.9 2 2 2h20a2 2 0 0 0 2-2v-14a2 2 0 0 0-2-2H2z" opacity=".8"/>
    <path fill="#2080b0" d="M3 1029.4a2 2 0 0 0-2 2v14c0 1.1.9 2 2 2h18a2 2 0 0 0 2-2v-12a2 2 0 0 0-2-2h-8l-3-2H3z" opacity=".8"/>
    <path fill="#c0d0d0" d="M3 1032.6a2 2 0 0 0-2 2v13.6c0 1.1.9 2 2 2h18a2 2 0 0 0 2-2v-13.6a2 2 0 0 0-2-2H1z" opacity=".8"/>
    <path fill="#40a0e0" d="M2 1033.4a2 2 0 0 0-2 2v13c0 1.1.9 2 2 2h20a2 2 0 0 0 2-2v-13a2 2 0 0 0-2-2H2z" opacity=".8"/>
  </g>
  <path fill="#005080" d="M17 7.75v8.75c0 .26-.09.5-.27.7s-.4.36-.67.47a4.82 4.82 0 0 1-1.56.33 4.04 4.04 0 0 1-1.56-.33c-.27-.11-.5-.27-.67-.48s-.27-.43-.27-.69.09-.5.27-.7.4-.36.67-.46A4.04 4.04 0 0 1 16 15.3v-4.2l-6 1.86v5.54c0 .26-.09.5-.27.7s-.4.36-.67.46a4.01 4.01 0 0 1-3.12 0c-.27-.1-.5-.26-.67-.46S5 18.75 5 18.5s.09-.5.27-.7.4-.36.67-.46A4.05 4.05 0 0 1 7.5 17c.55 0 1.05.1 1.5.3V9.75c0-.16.05-.3.15-.44a.8.8 0 0 1 .38-.28l6.5-2a.7.7 0 0 1 .22-.03c.2 0 .39.07.53.22a.7.7 0 0 1 .22.53"/>
</svg>
