<?xml version="1.0" encoding="UTF-8" standalone="no"?>
<!--Simple Web Audio Player - Copyright Michael Sinz-->
<svg xmlns="http://www.w3.org/2000/svg" viewBox="-10 50 1740 1800">
  <path stroke="#000" stroke-width="30" d="M0 405v750m0-735h1928M0 600h1928M0 780h1928M0 960h1928M0 1140h1928"/>
  <path fill="#070" stroke="#070" d="M408 1136a312 312 0 0 1-149-10c-63-30-108-67-134-111-19-31-31-74-35-126-3-43 8-89 32-136 21-41 46-77 79-107 32-30 69-61 110-91a880 880 0 0 1-13-131c0-84 12-124 50-185 24-39 46-59 64-59 15 0 31 22 50 66 18 45 28 83 29 115 1 86-14 125-48 184-10 15-46 65-71 85l-26 21 22 130 20-1c42 0 74 9 96 25 42 31 66 75 70 133 8 97-57 165-129 194l18 117c3 22 4 41 4 57 0 22-3 38-10 51-25 46-63 71-114 74-30 2-59-4-89-19-36-17-55-42-58-75-1-25 4-46 15-63 13-20 32-30 57-32 36-3 71 29 74 63 3 40-22 68-76 83 12 17 37 26 74 26 44 0 83-31 100-62 7-11 10-29 10-53 0-14-1-30-4-48-6-38-13-76-18-115zm14-852c-68 0-97 126-97 206l3 51c36-28 67-59 92-92 31-41 45-77 43-107-3-39-17-59-41-58zm-40 590 39 235c58-19 84-63 79-132-5-72-45-106-118-103zm-17 2c-53 1-95 36-92 91 1 33 31 71 54 83l-7 7c-51-24-84-63-89-124-3-52 30-97 63-122 17-12 36-21 57-26l-21-122c-15 9-38 26-66 52-36 32-62 61-79 86-35 54-51 101-48 140 3 49 25 92 67 127a220 220 0 0 0 200 46l-39-238z"/>
  <g fill="#008" stroke="#008">
    <path d="M915 1258c0-49 53-124 144-124 48 0 82 27 82 69 0 60-76 123-157 123-46 0-69-22-69-68z"/>
    <path stroke-width="20" d="M1131 1208V576"/>
    <path d="M1365 1168c0-49 53-124 144-124 48 0 82 27 82 69 0 60-76 123-157 123-46 0-69-22-69-68z"/>
    <path stroke-width="20" d="M1581 1118V530"/>
    <path stroke="none" d="M1121 646v-90l470-46v90z"/>
  </g>
</svg>
