<?xml version="1.0" encoding="UTF-8" standalone="no"?>
<!--Simple Web Audio Player - Copyright Michael Sinz-->
<svg xmlns="http://www.w3.org/2000/svg" fill="none" viewBox="0 0 30 30">
  <filter id="a" width="28.88" height="28.88" x="1.86" y=".94" color-interpolation-filters="sRGB" filterUnits="userSpaceOnUse">
    <feFlood flood-opacity="0" result="BackgroundImageFix"/>
    <feBlend in="SourceGraphic" in2="BackgroundImageFix" result="shape"/>
    <feColorMatrix in="SourceAlpha" result="hardAlpha" values="0 0 0 0 0 0 0 0 0 0 0 0 0 0 0 0 0 0 127 0"/>
    <feOffset dx="1" dy="-1"/>
    <feGaussianBlur stdDeviation="1.5"/>
    <feComposite in2="hardAlpha" k2="-1" k3="1" operator="arithmetic"/>
    <feColorMatrix values="0 0 0 0 0.188235 0 0 0 0 0.470588 0 0 0 0 0.843137 0 0 0 1 0"/>
    <feBlend in2="shape" result="effect1_innerShadow_18590_1391"/>
    <feColorMatrix in="SourceAlpha" result="hardAlpha" values="0 0 0 0 0 0 0 0 0 0 0 0 0 0 0 0 0 0 127 0"/>
    <feOffset dy="-1"/>
    <feGaussianBlur stdDeviation="1.5"/>
    <feComposite in2="hardAlpha" k2="-1" k3="1" operator="arithmetic"/>
    <feColorMatrix values="0 0 0 0 0.27451 0 0 0 0 0.34902 0 0 0 0 0.8 0 0 0 1 0"/>
    <feBlend in2="effect1_innerShadow_18590_1391" result="effect2_innerShadow_18590_1391"/>
  </filter>
  <filter id="d" width="5.5" height="28.38" x="25.29" y="1.69" color-interpolation-filters="sRGB" filterUnits="userSpaceOnUse">
    <feFlood flood-opacity="0" result="BackgroundImageFix"/>
    <feBlend in="SourceGraphic" in2="BackgroundImageFix" result="shape"/>
    <feGaussianBlur result="effect1_foregroundBlur_18590_1391" stdDeviation="1"/>
  </filter>
  <filter id="f" width="27.28" height="5.5" x="2.57" y="1" color-interpolation-filters="sRGB" filterUnits="userSpaceOnUse">
    <feFlood flood-opacity="0" result="BackgroundImageFix"/>
    <feBlend in="SourceGraphic" in2="BackgroundImageFix" result="shape"/>
    <feGaussianBlur result="effect1_foregroundBlur_18590_1391" stdDeviation="1"/>
  </filter>
  <filter id="h" width="20" height="16.62" x="5.79" y="7.56" color-interpolation-filters="sRGB" filterUnits="userSpaceOnUse">
    <feFlood flood-opacity="0" result="BackgroundImageFix"/>
    <feBlend in="SourceGraphic" in2="BackgroundImageFix" result="shape"/>
    <feGaussianBlur result="effect1_foregroundBlur_18590_1391" stdDeviation=".5"/>
  </filter>
  <filter id="i" width="19.4" height="16.02" x="5.79" y="8.16" color-interpolation-filters="sRGB" filterUnits="userSpaceOnUse">
    <feFlood flood-opacity="0" result="BackgroundImageFix"/>
    <feBlend in="SourceGraphic" in2="BackgroundImageFix" result="shape"/>
    <feColorMatrix in="SourceAlpha" result="hardAlpha" values="0 0 0 0 0 0 0 0 0 0 0 0 0 0 0 0 0 0 127 0"/>
    <feOffset dx="-1" dy="1"/>
    <feGaussianBlur stdDeviation="1"/>
    <feComposite in2="hardAlpha" k2="-1" k3="1" operator="arithmetic"/>
    <feColorMatrix values="0 0 0 0 0.866667 0 0 0 0 0.819608 0 0 0 0 0.941176 0 0 0 1 0"/>
    <feBlend in2="shape" result="effect1_innerShadow_18590_1391"/>
    <feColorMatrix in="SourceAlpha" result="hardAlpha" values="0 0 0 0 0 0 0 0 0 0 0 0 0 0 0 0 0 0 127 0"/>
    <feOffset dx=".4" dy="-.4"/>
    <feGaussianBlur stdDeviation=".5"/>
    <feComposite in2="hardAlpha" k2="-1" k3="1" operator="arithmetic"/>
    <feColorMatrix values="0 0 0 0 1 0 0 0 0 0.988235 0 0 0 0 1 0 0 0 1 0"/>
    <feBlend in2="effect1_innerShadow_18590_1391" result="effect2_innerShadow_18590_1391"/>
  </filter>
  <linearGradient id="b" x1="15.79" x2="15.79" y1="5.51" y2="38.76" gradientUnits="userSpaceOnUse">
    <stop offset="0" stop-color="#5cb7ff"/>
    <stop offset="1" stop-color="#4878dd"/>
  </linearGradient>
  <radialGradient id="c" cx="0" cy="0" r="1" gradientTransform="matrix(-1.56 1.47 -1.72 -1.82 27.51 4.03)" gradientUnits="userSpaceOnUse">
    <stop offset="0" stop-color="#7bd7ff"/>
    <stop offset="1" stop-color="#7bd7ff" stop-opacity="0"/>
  </radialGradient>
  <linearGradient id="e" x1="28.54" x2="28.54" y1="4.44" y2="27.31" gradientUnits="userSpaceOnUse">
    <stop offset="0" stop-color="#7fd9ff"/>
    <stop offset="1" stop-color="#639df4"/>
  </linearGradient>
  <linearGradient id="g" x1="28.26" x2="2.73" y1="4" y2="4" gradientUnits="userSpaceOnUse">
    <stop offset="0" stop-color="#7dd8ff"/>
    <stop offset="1" stop-color="#5db6ff"/>
  </linearGradient>
  <g transform="translate(-.86 -.94)">
    <g filter="url(#a)">
      <rect width="27.88" height="27.88" x="1.86" y="1.94" fill="url(#b)" rx="3.6"/>
      <rect width="27.88" height="27.88" x="1.86" y="1.94" fill="url(#c)" rx="3.6"/>
    </g>
    <g filter="url(#d)">
      <path stroke="url(#e)" stroke-linecap="round" stroke-width="1.5" d="M28.04 4.44V27.3"/>
    </g>
    <g filter="url(#f)">
      <path stroke="url(#g)" stroke-linecap="round" stroke-width="1.5" d="M5.32 3.75H27.1"/>
    </g>
    <g filter="url(#h)">
      <path fill="#579fff" d="M14.8 16.9a.03.03 0 0 0-.05-.02l-6.26 6.03a1 1 0 0 1-1.7-.72V9.56a1 1 0 0 1 1.7-.72l6.26 6.03a.03.03 0 0 0 .04-.02V9.56a1 1 0 0 1 1.7-.72l6.26 6.03h.01c.02 0 .03 0 .03-.02V9.37c0-.27.23-.5.5-.5h1c.28 0 .5.23.5.5v13a.5.5 0 0 1-.5.5h-1a.5.5 0 0 1-.5-.5V16.9a.03.03 0 0 0-.04-.02l-6.26 6.03a1 1 0 0 1-1.7-.72z"/>
    </g>
    <g filter="url(#i)">
      <path fill="#fcf2ff" d="M14.8 16.9a.03.03 0 0 0-.05-.02l-6.26 6.03a1 1 0 0 1-1.7-.72V9.56a1 1 0 0 1 1.7-.72l6.26 6.03a.03.03 0 0 0 .04-.02V9.56a1 1 0 0 1 1.7-.72l6.26 6.03h.01c.02 0 .03 0 .03-.02V9.37c0-.27.23-.5.5-.5h1c.28 0 .5.23.5.5v13a.5.5 0 0 1-.5.5h-1a.5.5 0 0 1-.5-.5V16.9a.03.03 0 0 0-.04-.02l-6.26 6.03a1 1 0 0 1-1.7-.72z"/>
    </g>
  </g>
</svg>
