<?xml version="1.0" encoding="UTF-8" standalone="no"?>
<!--Simple Web Audio Player - Copyright Michael Sinz-->
<svg xmlns="http://www.w3.org/2000/svg" viewBox="0 0 1280 1280">
  <g transform="matrix(1.43 0 0 1 -231.07 -454.63)">
    <path fill="#ccd" d="M1044.7 456.86H937.51v30.94a36.93 36.93 0 0 1-15.22 71.57 37.05 37.05 0 0 1-34.22-34.93 36.93 36.93 0 0 1 24.32-36.64v-30.94H725.94v30.94a36.94 36.94 0 0 1-15.21 71.57 37.05 37.05 0 0 1-34.23-34.92 36.94 36.94 0 0 1 24.32-36.65v-30.94H514.38v30.94a36.93 36.93 0 0 1-15.22 71.57 37.06 37.06 0 0 1-34.23-34.93 36.95 36.95 0 0 1 24.32-36.64v-30.94H302.81v30.94a36.94 36.94 0 0 1-15.21 71.57 37.06 37.06 0 0 1-34.24-34.93 36.93 36.93 0 0 1 24.32-36.64v-30.94H170.49a9.31 9.31 0 0 0-9.31 9.31v1267.66a9.3 9.3 0 0 0 9.31 9.31h734.67l148.86-143.43V466.17a9.31 9.31 0 0 0-9.32-9.31z"/>
    <path fill="#abb" d="m1054.02 1599.71-148.86 143.43 36.81-152.16a10 10 0 0 1 11.31-7.52z"/>
    <g transform="matrix(1.92 0 0 2.87 173.54 435.2)">
      <path fill="#0ef" d="M267.32 144.34v-65.6l83.2 35.6 60.8 113.6h-40l-38.8-62.8z"/>
      <g fill="#111" transform="translate(14.92 33.94)">
        <ellipse cx="200" cy="331" rx="45" ry="66" transform="rotate(-105 197.6 330.39)"/>
        <path d="M252.4 318.8c-4.4 0-8-3.6-8-8V46.4c0-2.4 1.2-4.8 3.2-6.4 2-1.6 4.8-2 7.2-1.2l32.8 9.6c42 12.4 74.4 44.8 87.2 87.2l1.2 5.2c4.8 16.8 14.4 31.6 27.6 43.2l10 8.8c3.2 2.8 3.6 8 .8 11.2-2.8 3.2-8 3.6-11.2.8l-10-8.8c-15.6-13.2-26.8-31.2-32.4-51.2l-1.2-5.2c-10.8-36.4-39.2-64.8-76-76l-22.4-6.4v253.6c-.8 4.4-4.4 8-8.8 8z"/>
        <path d="M408.8 206.4h-20c-25.2 0-48.4-14-60.4-36.4l-1.2-2.4c-10.8-20-27.6-34.8-49.2-42.8L249.6 114c-4-1.6-6.4-6-4.8-10.4 1.6-4.4 6-6.4 10.4-4.8l28.4 10.8c24.8 9.6 45.2 27.2 58 50.4l1.2 2.8c8.8 16.8 26.8 27.6 46 27.6h20c4.4 0 8 3.6 8 8s-3.6 8-8 8z"/>
      </g>
      <path fill="#6a2" d="M216 130H68.4c-4.4 0-8-3.6-8-8s3.6-8 8-8h148.4c4.4 0 8 3.6 8 8s-3.6 8-8 8zm-176 0H28c-4.4 0-8-3.6-8-8s3.6-8 8-8h12.4c4.4 0 8 3.6 8 8s-3.6 8-8 8zm156 48H68.4c-4.4 0-8-3.6-8-8s3.6-8 8-8h128.4c4.4 0 8 3.6 8 8s-3.6 8-8 8zm-156 0H28c-4.4 0-8-3.6-8-8s3.6-8 8-8h12.4c4.4 0 8 3.6 8 8s-3.6 8-8 8zm188 48H68.4c-4.4 0-8-3.6-8-8s3.6-8 8-8h160.4c4.4 0 8 3.6 8 8s-3.6 8-8 8zm-188 0H28c-4.4 0-8-3.6-8-8s3.6-8 8-8h12.4c4.4 0 8 3.6 8 8s-3.6 8-8 8zm136 48H68.4c-4.4 0-8-3.6-8-8s3.6-8 8-8h108.4c4.4 0 8 3.6 8 8s-3.6 8-8 8zm-136 0H28c-4.4 0-8-3.6-8-8s3.6-8 8-8h12.4c4.4 0 8 3.6 8 8s-3.6 8-8 8z"/>
    </g>
  </g>
</svg>
