<?xml version="1.0" encoding="UTF-8" standalone="no"?>
<!--Simple Web Audio Player - Copyright Michael Sinz-->
<svg xmlns="http://www.w3.org/2000/svg" xmlns:xlink="http://www.w3.org/1999/xlink" viewBox="0 0 30 30">
  <defs>
    <path id="h" d="M402.12 84 323.09 4.99A17 17 0 0 0 311.06 0H17A17 17 0 0 0 0 17v373.1a17 17 0 0 0 17 17h373.1a17 17 0 0 0 17-17V96.02A17 17 0 0 0 402.11 84zm-101.46 79.57H67.13V38.87h233.53z"/>
    <path id="i" d="M214.05 148.16h43.08a5.67 5.67 0 0 0 5.67-5.67V59.6a5.67 5.67 0 0 0-5.67-5.67h-43.08a5.67 5.67 0 0 0-5.67 5.66v82.91a5.67 5.67 0 0 0 5.67 5.67z"/>
  </defs>
  <filter id="a" width="28.88" height="28.88" x="2.5" y="1.31" color-interpolation-filters="sRGB" filterUnits="userSpaceOnUse">
    <feFlood flood-opacity="0" result="BackgroundImageFix"/>
    <feBlend in="SourceGraphic" in2="BackgroundImageFix" result="shape"/>
    <feColorMatrix in="SourceAlpha" result="hardAlpha" values="0 0 0 0 0 0 0 0 0 0 0 0 0 0 0 0 0 0 127 0"/>
    <feOffset dx="1" dy="-1"/>
    <feGaussianBlur stdDeviation="1.5"/>
    <feComposite in2="hardAlpha" k2="-1" k3="1" operator="arithmetic"/>
    <feColorMatrix values="0 0 0 0 0.188235 0 0 0 0 0.470588 0 0 0 0 0.843137 0 0 0 1 0"/>
    <feBlend in2="shape" result="effect1_innerShadow_18590_1517"/>
    <feColorMatrix in="SourceAlpha" result="hardAlpha" values="0 0 0 0 0 0 0 0 0 0 0 0 0 0 0 0 0 0 127 0"/>
    <feOffset dy="-1"/>
    <feGaussianBlur stdDeviation="1.5"/>
    <feComposite in2="hardAlpha" k2="-1" k3="1" operator="arithmetic"/>
    <feColorMatrix values="0 0 0 0 0.27451 0 0 0 0 0.34902 0 0 0 0 0.8 0 0 0 1 0"/>
    <feBlend in2="effect1_innerShadow_18590_1517" result="effect2_innerShadow_18590_1517"/>
  </filter>
  <filter id="d" width="5.5" height="28.38" x="25.94" y="2.06" color-interpolation-filters="sRGB" filterUnits="userSpaceOnUse">
    <feFlood flood-opacity="0" result="BackgroundImageFix"/>
    <feBlend in="SourceGraphic" in2="BackgroundImageFix" result="shape"/>
    <feGaussianBlur result="effect1_foregroundBlur_18590_1517" stdDeviation="1"/>
  </filter>
  <filter id="f" width="27.28" height="5.5" x="3.21" y="1.38" color-interpolation-filters="sRGB" filterUnits="userSpaceOnUse">
    <feFlood flood-opacity="0" result="BackgroundImageFix"/>
    <feBlend in="SourceGraphic" in2="BackgroundImageFix" result="shape"/>
    <feGaussianBlur result="effect1_foregroundBlur_18590_1517" stdDeviation="1"/>
  </filter>
  <linearGradient id="b" x1="16.44" x2="16.44" y1="5.89" y2="39.14" gradientUnits="userSpaceOnUse">
    <stop offset="0" stop-color="#5cb7ff"/>
    <stop offset="1" stop-color="#4878dd"/>
  </linearGradient>
  <radialGradient id="c" cx="0" cy="0" r="1" gradientTransform="matrix(-1.562 1.469 -1.715 -1.825 28.16 4.4)" gradientUnits="userSpaceOnUse">
    <stop offset="0" stop-color="#7bd7ff"/>
    <stop offset="1" stop-color="#7bd7ff" stop-opacity="0"/>
  </radialGradient>
  <linearGradient id="e" x1="29.19" x2="29.19" y1="4.81" y2="27.69" gradientUnits="userSpaceOnUse">
    <stop offset="0" stop-color="#7fd9ff"/>
    <stop offset="1" stop-color="#639df4"/>
  </linearGradient>
  <linearGradient id="g" x1="28.9" x2="3.37" y1="4.38" y2="4.38" gradientUnits="userSpaceOnUse">
    <stop offset="0" stop-color="#7dd8ff"/>
    <stop offset="1" stop-color="#5db6ff"/>
  </linearGradient>
  <g transform="translate(0 .04)">
    <g filter="url(#a)" transform="translate(-1.5 -1.36)">
      <rect width="27.88" height="27.88" x="2.5" y="2.31" fill="url(#b)" rx="3.6"/>
      <rect width="27.88" height="27.88" x="2.5" y="2.31" fill="url(#c)" rx="3.6"/>
    </g>
    <g filter="url(#d)" transform="translate(-1.5 -1.36)">
      <path stroke="url(#e)" stroke-linecap="round" stroke-width="1.5" d="M28.69 4.81V27.7"/>
    </g>
    <g filter="url(#f)" transform="translate(-1.5 -1.36)">
      <path stroke="url(#g)" stroke-linecap="round" stroke-width="1.5" d="M5.96 4.13h21.79"/>
    </g>
    <path fill="#fff" d="M11.18 6.17c-1.73 0-3.13.23-3.13.51v6.18c0 .28 1.4.51 3.13.51h6.26c1.72 0 3.12-.23 3.12-.51V6.68c0-.28-1.4-.51-3.12-.51z" opacity=".8"/>
    <g fill="#fff" opacity=".8" transform="matrix(.048 0 0 .048 5.3 4.8)">
      <use xlink:href="#h"/>
      <use xlink:href="#i"/>
    </g>
    <g fill="#111" transform="matrix(.047 0 0 .047 5.5 5)">
      <use xlink:href="#h"/>
      <use xlink:href="#i"/>
    </g>
  </g>
</svg>
