<?xml version="1.0" encoding="UTF-8" standalone="no"?>
<!--Simple Web Audio Player - Copyright Michael Sinz-->
<svg xmlns="http://www.w3.org/2000/svg" viewBox="0 500 2500 2500">
  <path d="m1073 2701-472-472-333-2c-46 0-74-27-74-68v-805c0-35 27-66 66-67l341-2 481-480c42-42 134-17 134 63v1778c0 93-98 100-143 55zm927-1917h3c0 1 0 1 16 2 13 5 13 5 21 8 5 3 10 6 15 10l8 8c4 6 7 11 12 17 16 32 16 32 40 83 10 26 21 51 32 77 16 43 16 43 32 90 16 51 16 51 32 107 5 21 10 42 16 64 5 25 10 49 16 74 5 30 10 60 16 91 8 55 8 55 16 124 4 45 4 45 8 107l2 49v126c-6 108-6 108-10 152-8 70-8 70-16 126-8 48-8 48-24 130-6 23-11 46-16 69-16 60-16 60-32 114-6 16-11 33-16 49-11 29-22 57-32 86-8 19-16 37-24 56-11 23-22 45-32 68-4 5-7 11-11 16-2 3-4 5-6 8-7 4-13 9-19 13-7 3-14 6-21 8-5 1-10 1-16 2-5 0-10-1-16-1-9-2-9-2-20-6-10-5-10-5-19-11-5-6-11-11-16-17-3-5-6-10-8-15-4-11-4-11-6-21v-24c1-5 2-9 3-13 8-19 8-19 40-87 11-27 21-54 32-80 16-46 16-46 32-96 16-56 16-56 32-119 16-74 16-74 24-118 8-51 8-51 16-111 2-28 5-55 8-83 1-22 3-44 4-65 1-24 1-47 2-70v-56c-1-21-2-42-2-63-2-36-2-36-10-128-3-21-6-43-8-64-6-32-11-65-16-97-8-40-8-40-24-110-16-60-16-60-32-114-6-16-11-32-16-48-8-22-16-44-24-65l-24-57c-14-28-27-56-40-84-2-6-3-12-4-18v-18l3-15c6-14 6-14 11-23 4-6 9-10 13-15 5-4 10-7 14-11 8-4 8-4 19-7 8-2 15-3 22-4z"/>
  <path d="M1720 2601c-16-4-16-4-27-8-6-4-12-8-18-11-12-12-12-12-17-19-3-7-6-13-9-19-2-6-3-12-4-18v-17c0-4 1-8 2-12s2-8 4-12c10-23 21-45 32-68 16-39 16-39 32-81 5-16 10-31 16-47 8-27 16-55 24-82 16-66 16-66 24-105 5-32 10-63 16-95 8-66 8-66 12-109 1-30 3-61 5-91v-97c-1-27-3-53-4-80-2-16-3-31-4-47-8-67-8-67-16-120-8-44-8-44-24-118-16-61-16-61-32-115-16-47-16-47-32-90-16-39-16-39-32-74-8-17-16-33-24-50-1-5-3-10-4-15-1-6-1-12-1-18 2-15 2-15 4-22 4-10 4-10 11-23 3-3 5-6 8-10 17-13 17-13 22-16 5-1 11-4 16-6 8-1 15-1 23-3 5 1 11 2 17 2 5 2 9 3 13 4 19 11 19 11 24 15l8 8c3 5 7 11 11 16 6 11 11 22 17 33 10 24 21 48 32 72 16 40 16 40 32 83 5 16 10 32 16 48 5 18 10 36 16 54 5 20 10 41 16 61 5 24 10 47 16 71 5 30 10 60 16 90 2 19 5 37 8 56 8 75 8 75 12 129 1 25 2 51 3 76v62c-1 21-1 43-2 65-1 21-3 42-4 63-4 36-8 73-12 110-3 17-6 34-8 52-5 28-11 56-16 85-6 23-11 47-16 70-5 20-11 40-16 60-5 17-11 34-16 52-16 47-16 47-32 90-8 19-16 39-24 59-16 35-16 35-32 67-3 4-5 8-8 13-2 1-3 3-5 4 0 1 0 2-1 3h-2c-8 8-8 8-18 14-9 4-9 4-21 8-4 1-7 1-12 2-4 0-10 0-15 1z"/>
  <path d="M1438 2500c-8-3-16-5-24-8l-15-9c-8-7-8-7-15-15-6-9-6-9-10-17-1-4-3-7-4-11-1-6-2-11-3-17v-13c2-12 2-12 6-25 5-11 11-22 16-33 8-18 16-37 24-55 16-43 16-43 32-90 5-18 11-37 16-55 5-22 10-43 16-65 3-13 5-26 8-39l12-72c8-67 8-67 12-115 1-20 2-39 3-59v-88c-1-25-3-50-4-75-3-26-5-51-8-77-3-18-5-37-8-55-5-27-11-55-16-82-5-22-11-43-16-65-5-18-11-36-16-54-5-16-11-32-16-48-16-42-16-42-32-79-8-17-16-33-24-50-3-7-6-14-8-21-2-13-2-13-2-24 1-5 1-9 2-14 1-4 2-9 4-13 3-6 6-11 9-17 2-3 5-6 7-9 5-4 9-7 14-11 16-9 16-9 23-12 6-1 11-2 17-3h15c12 2 12 2 24 6 7 4 13 8 20 12 8 7 10 10 14 14 12 20 12 20 28 52 5 12 10 24 16 36 10 27 21 54 32 81 16 48 16 48 32 101 5 21 11 42 16 63 5 25 10 50 16 75 2 15 5 31 8 46 4 30 8 61 12 91 2 23 4 47 6 70 1 23 2 47 3 71v59c-1 20-1 40-2 61-1 19-3 38-4 58-3 24-6 49-8 73-8 55-8 55-16 100l-24 108c-16 56-16 56-32 107-5 15-11 29-16 44l-24 60-24 51c-5 8-10 17-15 25-4 4-8 8-11 12-6 3-11 7-17 10-4 2-10 4-15 6-3 1-6 2-10 2-8 0-16 0-24 1z"/>
  <path fill="#fff" d="m1048 2439-329-329v-707l328-328 1 1364zm-687-378v-608h190v608H361z"/>
</svg>
